<svg width="0" height="0" class="hidden">
  <symbol fill="none" xmlns="http://www.w3.org/2000/svg" viewBox="0 0 46 48" id="1">
    <path d="M45.2259 7.44103C45.2259 7.43999 45.2249 7.43895 45.2249 7.43739C45.215 7.41391 45.203 7.39095 45.1889 7.36956C45.1873 7.36799 45.1863 7.36643 45.1852 7.36486C45.1706 7.34295 45.1539 7.32103 45.1346 7.30173L37.9258 0.0933838C37.907 0.0746012 37.8866 0.0589521 37.8647 0.0443434C37.8605 0.0412129 37.8553 0.0385972 37.8511 0.0354667C37.8334 0.0245102 37.8157 0.0145973 37.7969 0.00624947C37.7911 0.00364077 37.7859 0.00103182 37.7807 -0.000533394C37.7337 -0.019316 37.6831 -0.0292283 37.6325 -0.0307936C37.6294 -0.0307936 37.6268 -0.031311 37.6247 -0.031311H5.86749C5.63218 -0.031311 5.44174 0.159646 5.44174 0.394951V44.3609C5.44174 44.389 5.44435 44.4162 5.45009 44.4443C5.4527 44.4563 5.45688 44.4673 5.46053 44.4788C5.46523 44.4939 5.46887 44.509 5.47461 44.5236C5.48035 44.5367 5.48766 44.5492 5.49496 44.5623C5.50122 44.5732 5.50644 44.5857 5.51374 44.5967C5.52835 44.6181 5.54505 44.6384 5.56279 44.6567C5.56436 44.6583 5.56488 44.6603 5.56696 44.6614L8.81375 47.9076C8.98018 48.0741 9.2494 48.0741 9.41636 47.9076L12.3631 44.9624L15.3089 47.9076C15.3918 47.9911 15.5014 48.0323 15.6104 48.0323C15.719 48.0323 15.828 47.9911 15.9115 47.9076L18.8567 44.9629L21.8035 47.9076C21.9699 48.0741 22.2397 48.0741 22.4061 47.9076L25.3513 44.9629L28.2965 47.9076C28.463 48.0741 28.7327 48.0741 28.8986 47.9076L31.8464 44.9624L34.7917 47.9076C34.8746 47.9911 34.9842 48.0323 35.0927 48.0323C35.2017 48.0323 35.3108 47.9911 35.3943 47.9076L38.3395 44.9629L41.2868 47.9076C41.4527 48.0741 41.723 48.0741 41.8889 47.9076L45.1357 44.6614C45.1419 44.6551 45.1466 44.6478 45.1523 44.641C45.1643 44.627 45.1774 44.6129 45.1878 44.5972C45.1977 44.5831 45.2045 44.5669 45.2124 44.5518C45.2176 44.5419 45.2233 44.5336 45.2264 44.5236C45.2353 44.5043 45.2395 44.4845 45.2447 44.4647C45.2468 44.4579 45.2499 44.4516 45.2515 44.4449C45.2572 44.4156 45.2604 44.3875 45.2604 44.3577V7.60382C45.2588 7.54799 45.2478 7.49268 45.2259 7.44103ZM38.0499 1.42382L43.8037 7.17703H38.0499V1.42382ZM44.4063 44.1835L41.5863 47.0035L38.639 44.0583C38.4731 43.8923 38.2033 43.8923 38.0369 44.0583L35.0917 47.0035L32.1464 44.0583C31.98 43.8923 31.7103 43.8923 31.5438 44.0583L28.5965 47.0035L25.6518 44.0598C25.6518 44.0593 25.6513 44.0588 25.6513 44.0583C25.5684 43.9753 25.4593 43.9336 25.3497 43.9336C25.2407 43.9336 25.1317 43.9753 25.0487 44.0583C25.0482 44.0588 25.0482 44.0588 25.0482 44.0588L22.1035 47.0035L19.1567 44.0583C18.9903 43.8923 18.721 43.8923 18.5541 44.0583L15.6089 47.0035L12.6631 44.0583C12.4967 43.8923 12.2275 43.8923 12.0605 44.0583L9.11375 47.0035L6.29322 44.1835V0.820169H37.1979V7.60278C37.1979 7.83808 37.3889 8.02904 37.6242 8.02904H44.4057L44.4063 44.1835Z" fill="#FF6B09"></path>
    <path d="M9.47063 4.85113H23.4251C23.6604 4.85113 23.8513 4.66018 23.8513 4.42487C23.8513 4.18957 23.6604 3.99861 23.4251 3.99861H9.47063C9.2348 3.99861 9.04437 4.18957 9.04437 4.42487C9.04437 4.66018 9.2348 4.85113 9.47063 4.85113Z" fill="#FF6B09"></path>
    <path d="M9.47063 7.48643H31.8485C32.0838 7.48643 32.2748 7.29548 32.2748 7.06017C32.2748 6.82487 32.0838 6.63391 31.8485 6.63391H9.47063C9.2348 6.63391 9.04437 6.82487 9.04437 7.06017C9.04437 7.29548 9.2348 7.48643 9.47063 7.48643Z" fill="#FF6B09"></path>
    <path d="M9.04437 9.852V23.6499C9.04437 23.8852 9.2348 24.0762 9.47063 24.0762H41.2289C41.4642 24.0762 41.6546 23.8852 41.6546 23.6499V9.852C41.6546 9.61669 41.4642 9.42574 41.2289 9.42574H9.47063C9.2348 9.42574 9.04437 9.61669 9.04437 9.852ZM18.4623 10.2783H40.8021V13.9456H18.4623V10.2783ZM18.4623 14.7981H40.8021V18.4638H18.4623V14.7981ZM18.4623 19.3158H40.8021V23.2236H18.4623V19.3158ZM9.89689 10.2783H17.6103V13.9456H9.89689V10.2783ZM9.89689 14.7981H17.6103V18.4638H9.89689V14.7981ZM9.89689 19.3158H17.6103V23.2236H9.89689V19.3158Z" fill="#FF6B09"></path>
    <path d="M41.2289 25.9936H9.47063C9.2348 25.9936 9.04437 26.1845 9.04437 26.4198V40.2172C9.04437 40.4525 9.2348 40.643 9.47063 40.643C9.70593 40.643 9.89637 40.4525 9.89637 40.2172V35.8837H17.6098V40.2172C17.6098 40.4525 17.8007 40.643 18.0355 40.643C18.2713 40.643 18.4618 40.4525 18.4618 40.2172V35.8837H40.8016V40.2172C40.8016 40.4525 40.9925 40.643 41.2278 40.643C41.4631 40.643 41.6536 40.4525 41.6536 40.2172V26.4198C41.6546 26.1845 41.4642 25.9936 41.2289 25.9936ZM17.6103 35.0311H9.89689V31.3659H17.6103V35.0311ZM17.6103 30.5129H9.89689V26.8466H17.6103V30.5129ZM40.8021 35.0311H18.4623V31.3659H40.8021V35.0311ZM40.8021 30.5129H18.4623V26.8466H40.8021V30.5129Z" fill="#FF6B09"></path>
    <path d="M3.42104 -0.0318298C3.18574 -0.0318298 2.99478 0.159127 2.99478 0.394432V44.3603C2.99478 44.5951 3.18574 44.7861 3.42104 44.7861C3.65635 44.7861 3.8473 44.5951 3.8473 44.3603V0.394432C3.8473 0.159127 3.65635 -0.0318298 3.42104 -0.0318298Z" fill="#FF6B09"></path>
    <path d="M1.0774 -0.0318298C0.842095 -0.0318298 0.651138 0.159127 0.651138 0.394432V44.3603C0.651138 44.5951 0.842095 44.7861 1.0774 44.7861C1.3127 44.7861 1.50314 44.5951 1.50314 44.3603V0.394432C1.50314 0.159127 1.3127 -0.0318298 1.0774 -0.0318298Z" fill="#FF6B09"></path>
  </symbol>
  <symbol fill="none" xmlns="http://www.w3.org/2000/svg" viewBox="0 0 48 47" id="2">
    <path d="M44.3198 -0.187988H21.1928C19.6873 -0.187988 18.4626 1.0367 18.4626 2.54224V12.1155L1.28127 19.3269C1.08675 19.4085 0.954522 19.5921 0.939586 19.8026C0.924651 20.0132 1.02883 20.2142 1.20988 20.3228L3.40098 21.6342V35.6091C2.28052 35.8646 1.43973 36.8674 1.43973 38.0673V39.4144C1.43973 39.7233 1.69035 39.9739 1.99926 39.9739H5.92285C6.23175 39.9739 6.48237 39.7233 6.48237 39.4144V38.0673C6.48237 36.869 5.64144 35.8675 4.52003 35.6104V22.304L6.25251 23.3409C6.19925 23.7404 6.24577 22.6446 6.22774 29.8471C6.22774 32.2147 12.2922 33.483 18.4626 33.5557V44.4617C18.4626 45.0251 18.6351 45.549 18.93 45.9838C19.4207 46.7097 20.2512 47.1879 21.1914 47.1879H44.3183C45.8224 47.1879 47.046 45.964 47.046 44.4603C47.046 44.535 47.043 42.1501 47.046 2.5426C47.046 1.0575 45.818 -0.187988 44.3198 -0.187988ZM5.36332 38.0673V38.8548H2.55878V38.0673C2.55878 37.2921 3.18642 36.6612 3.95759 36.6612C4.73276 36.6612 5.36332 37.2921 5.36332 38.0673ZM44.3198 46.066H21.1928C20.6379 46.066 20.1477 45.7851 19.8578 45.3587C19.6842 45.102 19.5827 44.7927 19.5827 44.4603V40.6798H45.9241V44.4617C45.9241 45.3381 45.1938 46.066 44.3198 46.066ZM45.9241 39.5608H19.5816V33.559C22.5943 33.5245 31.8238 32.861 31.8238 29.8471C31.8204 25.3225 31.8318 23.4877 31.8096 23.3324L36.834 20.3228C37.015 20.2142 37.1192 20.0132 37.1043 19.8026C37.0893 19.5921 36.9571 19.4085 36.7626 19.3269L19.5816 12.1153V7.44208H45.9241V39.5608V39.5608ZM19.0221 26.1322C15.9185 26.1322 9.94282 26.533 7.34679 28.2282C7.36326 23.0432 7.16689 23.3809 7.80541 22.9412C9.41805 21.7537 14.0305 20.9246 19.0221 20.9246C21.1993 20.9246 30.7047 21.5231 30.7047 23.5357V28.229C28.0844 26.518 22.139 26.1322 19.0221 26.1322ZM19.5827 2.5426C19.5827 1.6556 20.3044 0.933974 21.1914 0.933974H44.3183C45.2061 0.933974 45.9241 1.66572 45.9241 2.54224V6.32303H19.5827V2.5426ZM19.0221 13.0941L35.3106 19.9308L31.2746 22.3461C29.1289 20.2182 22.0309 19.8055 19.0221 19.8055C16.0094 19.8055 8.91093 20.2194 6.76978 22.3467L2.73254 19.9308L19.0221 13.0941ZM7.34679 29.8471C7.34679 28.9415 11.3567 27.2513 19.0221 27.2513C26.6923 27.2513 30.7047 28.9415 30.7047 29.8471C30.7047 30.7534 26.6923 32.4436 19.0221 32.4436C11.3567 32.4436 7.34679 30.7534 7.34679 29.8471Z" fill="#FF6B09"></path>
    <path d="M32.7549 41.5235C31.7345 41.5235 30.9044 42.3533 30.9044 43.374C30.9044 44.3947 31.7345 45.2252 32.7549 45.2252C33.7756 45.2252 34.6057 44.3947 34.6057 43.374C34.6057 42.3533 33.7756 41.5235 32.7549 41.5235ZM32.7549 44.1062C32.3516 44.1062 32.0234 43.7776 32.0234 43.374C32.0234 42.9704 32.3516 42.6425 32.7549 42.6425C33.1585 42.6425 33.4867 42.9704 33.4867 43.374C33.4867 43.7776 33.1585 44.1062 32.7549 44.1062Z" fill="#FF6B09"></path>
    <path d="M34.8892 3.06898H30.6206V4.18803H34.8892V3.06898Z" fill="#FF6B09"></path>
  </symbol>
  <symbol fill="none" xmlns="http://www.w3.org/2000/svg" viewBox="0 0 66 48" id="3">
    <path d="M29.4 6.91182H8.94055V8.44373H29.4V6.91182Z" fill="#FF6B09"></path>
    <path d="M29.3999 12.6236H12.0043V14.1555H29.3999V12.6236Z" fill="#FF6B09"></path>
    <path d="M29.4 18.3359H8.94055V19.8678H29.4V18.3359Z" fill="#FF6B09"></path>
    <path d="M29.3999 24.0476H12.0043V25.5795H29.3999V24.0476Z" fill="#FF6B09"></path>
    <path d="M29.4 29.7594H8.94055V31.2913H29.4V29.7594Z" fill="#FF6B09"></path>
    <path d="M29.3999 35.4716H12.0043V37.0036H29.3999V35.4716Z" fill="#FF6B09"></path>
    <path d="M57.4851 6.91182H37.0256V8.44373H57.4851V6.91182Z" fill="#FF6B09"></path>
    <path d="M54.4212 12.6236H37.0256V14.1555H54.4212V12.6236Z" fill="#FF6B09"></path>
    <path d="M57.4851 18.3359H37.0256V19.8678H57.4851V18.3359Z" fill="#FF6B09"></path>
    <path d="M54.4212 24.0476H37.0256V25.5795H54.4212V24.0476Z" fill="#FF6B09"></path>
    <path d="M57.4851 29.7594H37.0256V31.2913H57.4851V29.7594Z" fill="#FF6B09"></path>
    <path d="M54.4212 35.4716H37.0256V37.0036H54.4212V35.4716Z" fill="#FF6B09"></path>
    <path d="M64.8723 5.16797H62.0638V0.949719C62.0638 0.526847 61.7207 0.183762 61.2979 0.183762H38.4009C36.1665 0.183762 34.2298 1.39173 33.2135 3.19997C32.197 1.39154 30.2591 0.183762 28.0246 0.183762H5.12766C4.70479 0.183762 4.3617 0.526847 4.3617 0.949719V5.16797H1.55319C1.13032 5.16797 0.787231 5.51105 0.787231 5.93393V47.0503C0.787231 47.4732 1.13032 47.8162 1.55319 47.8162C9.24343 47.8162 57.1546 47.8162 64.8723 47.8162C65.2952 47.8162 65.6383 47.4732 65.6383 47.0503V5.93393C65.6383 5.51105 65.2952 5.16797 64.8723 5.16797ZM38.4009 1.71568H60.5319C60.5319 8.57486 60.5319 26.6435 60.5319 42.7408H36.7668C35.7133 42.7408 34.66 43.185 33.9787 43.7611V6.12791C33.9787 3.68264 35.9364 1.71568 38.4009 1.71568ZM5.89362 1.71568H28.0246C30.4197 1.71568 32.358 3.57971 32.4373 5.95936C32.4383 5.99227 32.4413 6.0955 32.4468 6.12791V6.13389V6.13539V43.7581C31.7673 43.1843 30.7254 42.7408 29.6687 42.7408H5.89362C5.89362 26.6489 5.89362 8.57266 5.89362 1.71568ZM2.31915 6.69988H4.3617V43.5067C4.3617 43.9296 4.70479 44.2727 5.12766 44.2727H29.6687C30.8363 44.2727 31.9647 45.0387 32.3259 46.2843H2.31915V6.69988ZM64.1064 46.2843H34.1001C34.4637 45.0326 35.5808 44.2727 36.7668 44.2727H61.2979C61.7207 44.2727 62.0638 43.9296 62.0638 43.5067V6.69988H64.1064V46.2843V46.2843Z" fill="#FF6B09"></path>
  </symbol>
  <symbol fill="none" xmlns="http://www.w3.org/2000/svg" viewBox="0 0 49 48" id="4">
    <path d="M2.98972 18.837V23.084C2.98972 23.3121 3.09437 23.5271 3.27377 23.6688C6.17633 25.9532 9.81835 27.212 13.5294 27.212C14.6401 27.212 15.7517 27.0959 16.8386 26.8764C19.1553 27.9004 21.6212 28.4243 24.1736 28.4243C26.7342 28.4243 29.2007 27.9001 31.5092 26.8764C36.1455 27.8127 41.0857 26.8071 45.0728 23.6688C45.2522 23.5271 45.3567 23.3121 45.3567 23.084V18.837C45.3567 18.2137 45.0473 17.6457 44.4945 17.2963L38.6938 14.0329C39.9627 12.4227 40.9081 10.1302 41.0726 8.16368C41.554 4.77893 38.7954 1.19418 34.8243 1.19418C33.1546 1.19418 31.5673 1.88152 30.4026 3.03435C30.3623 3.07429 30.3163 3.10798 30.2771 3.14904C30.2412 3.18653 30.2122 3.23026 30.1773 3.26872C30.154 3.29423 30.1338 3.32242 30.1109 3.3483C28.976 1.27875 26.7946 0 24.2245 0C23.9748 0 23.7296 0.0171075 23.4866 0.0418018C23.4719 0.0409092 23.4593 0.0333968 23.4443 0.0333968C23.3063 0.0333968 23.0143 0.0696943 22.8582 0.114769C22.8351 0.121463 22.8185 0.137752 22.7966 0.14638C20.8774 0.534497 19.2516 1.69751 18.2772 3.38029C17.1053 2.01377 15.3826 1.19485 13.509 1.19485C7.64689 1.19485 5.04611 8.11266 9.67346 14.066L3.81928 17.316C3.29988 17.6449 2.98972 18.2137 2.98972 18.837ZM31.4946 25.2419C31.3689 25.3033 31.2444 25.3689 31.1177 25.4266L31.1175 25.4267C31.1166 25.4271 31.1157 25.4277 31.1148 25.428C28.9364 26.429 26.6012 26.9367 24.1736 26.9367C21.7533 26.9367 19.4181 26.429 17.2295 25.4266C16.1646 24.9421 15.1347 24.3262 14.162 23.5954V19.2902C14.162 19.1435 14.2332 19.0135 14.3153 18.9589L21.1283 15.1723C21.976 15.8919 23.0589 16.4196 24.1809 16.4196C25.2617 16.4196 26.429 15.8842 27.2595 15.1547L33.9898 18.9343C34.114 19.0142 34.1852 19.1435 34.1852 19.2902V23.5947C33.3283 24.2385 32.4259 24.7869 31.4946 25.2419ZM43.7312 18.5725C43.819 18.6277 43.8691 18.7243 43.8691 18.837V22.718C40.9164 24.9339 37.3635 25.9397 33.7639 25.6873C34.3177 25.3417 34.9207 24.9129 35.3881 24.5469C35.5675 24.406 35.6728 24.1903 35.6728 23.9615V19.2902C35.6728 18.6379 35.3451 18.0372 34.7575 17.6603L31.1824 15.6511L32.0518 15.1695C33.1063 16.0294 34.0118 16.2852 34.8243 16.2852C35.8181 16.2852 36.8644 15.7977 37.6413 15.147L43.7312 18.5725ZM34.8243 2.68178C36.895 2.68178 38.7138 4.03491 39.3562 5.89524C38.1068 5.74699 36.885 5.13031 36.0011 4.1824C35.8413 4.01103 35.614 3.92237 35.3779 3.94997C35.1454 3.97466 34.9385 4.10758 34.8185 4.30811C33.9702 5.72959 32.5792 6.67824 30.9971 6.94772C30.9972 6.94623 30.9969 6.94489 30.9969 6.9434C31.0039 6.61977 30.9851 6.29183 30.9481 5.96389C30.9443 5.93027 30.9412 5.89724 30.9369 5.864C30.889 5.49142 30.7768 5.02588 30.7546 4.9509C31.5992 3.5977 33.1682 2.68178 34.8243 2.68178ZM30.8341 8.46537C32.7134 8.25949 34.4131 7.31516 35.5805 5.82257C36.7312 6.76623 38.1909 7.33806 39.6333 7.40716C39.6222 10.095 37.4267 14.7976 34.8243 14.7976C32.8185 14.7976 31.1061 11.9291 30.4662 9.94033C30.6288 9.42882 30.7472 8.93679 30.8341 8.46537ZM30.9852 14.0593L29.6564 14.7951L28.3144 14.0414C28.812 13.4216 29.2681 12.702 29.6589 11.9213C30.0344 12.7109 30.4845 13.4364 30.9852 14.0593ZM28.98 9.69704C28.2627 11.8369 26.4227 14.932 24.1809 14.932C21.5675 14.932 19.342 10.6358 18.918 7.88833C19.0311 7.86029 22.5623 8.07785 24.9922 4.88701C26.2258 5.91881 27.8898 6.6017 29.5083 6.66946C29.5274 7.6393 29.2922 8.77881 28.98 9.69704ZM24.2245 1.48761C28.3939 1.48761 29.1877 5.07631 29.253 5.15076C27.7411 4.99724 26.3616 4.25656 25.4085 3.2374C25.2486 3.06603 25.0162 2.98027 24.7845 3.00571C24.5513 3.03115 24.3443 3.16481 24.2245 3.36675C23.3986 4.76406 22.1032 5.7496 20.6035 6.16843C20.0245 6.33021 19.3991 6.404 18.8539 6.39871C19.058 3.66598 21.2482 1.48761 24.2245 1.48761ZM18.6917 11.907C19.0775 12.6791 19.536 13.4166 20.0607 14.0645L18.7476 14.7944L17.3874 14.0298C17.9033 13.3723 18.3411 12.6366 18.6917 11.907ZM13.509 2.68245C15.1959 2.68245 16.7415 3.53849 17.6028 4.95313C17.5596 5.10308 17.4432 5.69999 17.4278 5.77466C16.3928 5.52698 15.4419 4.9756 14.6967 4.18099C14.5361 4.01029 14.3095 3.92527 14.0727 3.94997C13.8402 3.9754 13.6332 4.10907 13.5142 4.31026C12.5192 5.98925 10.6931 7.03206 8.7484 7.03258C8.98522 4.59231 11.0254 2.68245 13.509 2.68245ZM8.81377 8.5164C10.9512 8.49557 12.9692 7.48809 14.2775 5.82257C15.1713 6.55834 16.2328 7.04277 17.3607 7.26406C17.4045 8.12635 17.6292 9.17414 17.8862 9.94688C17.4755 11.2064 16.6874 12.7079 15.7101 13.705C15.7038 13.7112 15.6957 13.714 15.6896 13.7204C15.078 14.3647 14.2078 14.7983 13.5235 14.7983C11.1326 14.7983 9.26237 11.0362 8.81377 8.5164ZM4.47732 18.837C4.47732 18.7243 4.52745 18.6285 4.57833 18.5943L10.7521 15.1682C11.1225 15.4766 11.2077 15.5118 11.2822 15.5663L11.282 15.5668C12.0086 16.0497 12.6745 16.2903 13.5831 16.2903C14.5507 16.2903 15.4316 15.8803 16.2068 15.249C16.2505 15.2148 16.2975 15.1818 16.339 15.147L17.2201 15.6424L13.5505 17.6835C13.0021 18.0372 12.6744 18.6379 12.6744 19.2902V23.9615C12.6744 24.1896 12.7791 24.4053 12.9592 24.5462C13.4343 24.9194 14.0502 25.3547 14.5834 25.6881C10.9319 25.9372 7.3792 24.8956 4.47732 22.718V18.837Z" fill="#FF6B09"></path>
    <path d="M46.8879 31.1716C45.9727 30.5963 44.8461 30.5367 43.8771 31.0067L34.6979 35.441C34.6659 33.723 33.2638 32.3338 31.5375 32.3338L26.2743 32.3352C23.679 30.0791 20.3624 28.6975 17.3465 28.6249C14.3724 28.5544 11.7027 28.5346 10.4576 28.5291V27.0261H0V44.3014H10.4576V42.2327C13.3254 43.878 20.8661 48.0001 24.4446 48.0001C24.5259 48.0001 24.6051 47.998 24.6813 47.9936C30.9746 47.6406 45.8172 37.1961 46.7964 36.5024C47.7538 35.9467 48.3472 34.9182 48.3472 33.809C48.3472 32.7304 47.8017 31.7447 46.8879 31.1716ZM8.96997 42.8138H1.48761V28.5137H8.96997V42.8138ZM46.0308 35.2269C46.0083 35.2392 45.9858 35.253 45.9647 35.2683C45.8114 35.3772 30.5439 46.1747 24.5985 46.5089C24.5397 46.5118 24.4801 46.5132 24.4176 46.5132C21.2789 46.5132 13.6263 42.3844 10.4576 40.5118V30.0167C11.698 30.0223 14.3524 30.0422 17.3108 30.1125C20.0659 30.1786 23.1247 31.4941 25.4941 33.631L25.7063 33.8228L31.5375 33.8214C32.4629 33.8214 33.2162 34.5739 33.2162 35.4992C33.2162 36.4247 32.4637 37.1779 31.5383 37.1779H20.8251V38.6655H31.5383C32.565 38.6655 33.4699 38.1664 34.0486 37.4063L44.5244 32.3461C45.0386 32.0955 45.6124 32.1274 46.0976 32.4318C46.5822 32.7354 46.8596 33.2373 46.8596 33.809C46.8596 34.3959 46.5421 34.9385 46.0308 35.2269Z" fill="#FF6B09"></path>
    <path d="M24.9174 18.2375H23.4298V19.6169H24.9174V18.2375Z" fill="#FF6B09"></path>
    <path d="M24.9174 20.9885H23.4298V22.3679H24.9174V20.9885Z" fill="#FF6B09"></path>
    <path d="M24.9174 23.7393H23.4298V25.1186H24.9174V23.7393Z" fill="#FF6B09"></path>
  </symbol>
  <symbol fill="none" xmlns="http://www.w3.org/2000/svg" viewBox="0 0 40 47" id="5">
    <path d="M-0.153898 46.6381C5.00754 46.6381 34.8677 46.6381 40.0231 46.6381C40.2221 42.0563 39.8939 34.4544 37.0769 30.8363L36.9751 30.7063L30.8193 27.6156C30.9529 27.1647 31.0188 26.7517 31.0452 26.4481C31.0756 26.0838 31.0254 25.7414 30.8952 25.4314C29.8797 23.0013 27.7307 21.7228 26.5487 21.1777C26.9089 20.452 27.1412 19.6729 27.2533 18.8768C27.9224 18.6883 28.4607 18.158 28.6371 17.4506L29.3556 14.5316C29.4829 14.0166 29.403 13.4826 29.1293 13.0284C29.0116 12.8326 28.8593 12.6677 28.6885 12.5268C30.7143 7.92517 27.3213 3.5863 27.1364 3.35791C23.4618 -0.615096 18.8197 0.127805 18.5743 0.171834C11.8751 1.57462 9.28988 6.70877 10.7494 12.7302C10.317 13.2092 10.1355 13.8765 10.2958 14.5309L11.0178 17.4531C11.1929 18.1553 11.7268 18.6837 12.3912 18.8744C12.5962 20.3323 13.2133 21.6509 14.1196 22.7136V25.0277C4.50623 29.9507 10.5975 26.8099 2.89345 30.7074C2.87822 30.7801 -0.721472 34.6058 -0.186428 45.9453L-0.153898 46.6381ZM38.6271 45.1836H32.0147V42.4059L36.3881 32.3941C38.579 36.0305 38.6603 42.9737 38.6271 45.1836ZM29.6025 26.3245C29.3473 29.2558 27.7398 28.3698 26.7475 30.6282C25.967 29.7699 25.7323 28.7408 25.942 27.6392C26.321 25.6164 25.0864 25.0157 25.3915 22.8903L25.4377 22.8416V22.8348C25.464 22.8055 25.7074 22.5156 25.7779 22.424C28.394 23.5644 29.6535 25.6854 29.6025 26.3245ZM15.568 24.0206C16.7825 24.8629 18.2485 25.3608 19.8254 25.3608C21.3104 25.3608 22.7208 24.9287 23.9301 24.133C24.0977 25.8038 24.7508 26.1383 24.5191 27.3679C24.4756 27.5961 24.4521 27.821 24.4381 28.0422L19.935 33.1175L14.1784 26.6276L15.568 25.902V24.0206H15.568ZM13.7575 17.8093V14.9953C13.7575 13.9591 13.7575 9.8481 13.7575 10.0511C14.4584 8.75493 15.4138 7.81495 16.6012 7.25138C19.7813 9.05072 23.4418 11.736 25.8967 14.4386C25.8944 17.8803 25.9064 17.8896 25.8835 18.1724L25.882 18.1904C25.6904 21.3156 23.1206 23.9062 19.8254 23.9062C16.6217 23.9062 13.9619 21.3909 13.7696 18.1594C13.7597 18.0436 13.7575 17.9275 13.7575 17.8093ZM12.8608 27.3295L19.935 35.3043L24.6843 29.9515C24.7929 30.2641 24.9451 30.5593 25.1193 30.8446L19.935 37.3277L12.2042 27.6591L12.8608 27.3295ZM27.3451 16.6388V14.392C27.4087 14.319 27.9486 13.6999 27.885 13.7729C27.9148 14.9105 28.0376 13.5678 27.3451 16.6388ZM18.8423 1.60117C19.1297 1.61906 22.99 1.01398 26.041 4.30785C26.1611 4.4586 28.6447 7.65848 27.6469 11.159C27.3054 9.60135 26.7101 7.60526 25.7694 6.65266L24.7411 7.67681C25.67 8.61759 26.2801 11.4825 26.5125 12.9677C22.2518 8.5094 16.7558 5.68763 16.6804 5.63988C16.4048 5.81131 14.079 6.25349 12.3898 9.53654L12.3092 9.6935V12.1047C12.2367 12.1055 12.0237 12.1078 12.0963 12.107C11.023 6.92547 13.0783 2.80932 18.8423 1.60117ZM11.9436 13.6033L12.3092 15.0841V16.6406L11.7017 14.1818C11.6125 13.8153 11.8841 13.6763 11.9436 13.6033ZM10.8787 28.3245L19.935 39.6509L26.0622 31.9874C26.7288 32.5839 27.0492 32.6685 28.4625 33.3952L27.9858 31.7784C27.8649 31.3679 28.3436 30.7095 28.6329 30.4069C29.2785 30.0567 29.8166 29.5573 30.2191 28.9407L35.2184 31.451L30.5664 42.1012V45.1836H9.30285V42.1008L4.64873 31.452L10.8787 28.3245ZM3.48043 32.3973L7.85449 42.4062V45.1836H1.24212C1.20889 42.9744 1.29092 36.0348 3.48043 32.3973Z" fill="#FF6B09"></path>
  </symbol>
  <symbol fill="none" xmlns="http://www.w3.org/2000/svg" viewBox="0 0 55 48" id="6">
    <path d="M3.57139 44.1788H21.9163C22.846 46.1068 24.7913 47.3524 26.9866 47.3524H28.1451C30.3426 47.3524 32.2868 46.1074 33.2165 44.1788H51.5714C53.462 44.1788 55 42.6409 55 40.7503V7.89311C55 6.00249 53.462 4.46454 51.5714 4.46454H49.7198V2.9333C49.7198 1.67269 48.6942 0.647583 47.4341 0.647583H7.69751C6.43746 0.647583 5.41179 1.67269 5.41179 2.9333V4.46454H3.57139C1.68077 4.46454 0.142822 6.00249 0.142822 7.89311V40.7503C0.142822 42.6409 1.68077 44.1788 3.57139 44.1788ZM47.4319 37.1275H28.7143V10.5698C33.0406 11.1357 36.3951 14.8373 36.3951 19.3156V20.3463L36.1239 20.2865C35.8292 20.2235 35.5201 20.2765 35.2634 20.4394C35.0078 20.603 34.827 20.8608 34.7622 21.1571L32.943 29.4361C32.808 30.0516 33.1975 30.6604 33.8136 30.796L37.7455 31.6627C37.9486 31.7056 38.1551 31.7279 38.3616 31.7279C39.7444 31.7279 40.9218 30.7821 41.2232 29.4255L42.2756 24.6375C42.6227 23.0656 41.6261 21.5019 40.0491 21.1515L38.6808 20.85V19.3156C38.6808 13.5745 34.305 8.83692 28.7143 8.26019V2.9333H47.4341L47.4319 37.1275ZM36.7488 22.7648L39.5558 23.3831C39.9062 23.4612 40.1205 23.7949 40.0435 24.1454L38.991 28.9322C38.9151 29.2782 38.5323 29.493 38.2299 29.4288L35.4196 28.8094L36.7488 22.7648ZM7.69751 2.9333H26.4285V8.2585C20.8323 8.82993 16.4509 13.5706 16.4509 19.3156V20.8493L15.0803 21.1521C14.3169 21.3217 13.6651 21.7765 13.2466 22.4327C12.8259 23.0907 12.6875 23.8742 12.8571 24.6353L13.9073 29.4177C14.1919 30.7564 15.3962 31.7279 16.7712 31.7279C16.9777 31.7279 17.1841 31.7056 17.3951 31.661L21.3102 30.796C21.9252 30.6599 22.3147 30.0516 22.1797 29.4361L20.3605 21.1571C20.2957 20.8608 20.1149 20.6024 19.8593 20.4394C19.6026 20.2765 19.2924 20.2229 18.9977 20.2865L18.7366 20.3442V19.3156C18.7366 14.8335 22.0967 11.129 26.4285 10.5681V37.1275H7.69751V5.6074V2.9333ZM18.3739 22.7659L19.7042 28.81L16.9096 29.4272C16.5658 29.5047 16.2154 29.2776 16.1417 28.9355L15.0892 24.142C15.0513 23.9757 15.0814 23.8055 15.1718 23.6638C15.2634 23.5203 15.4073 23.421 15.5736 23.3836L18.3739 22.7659ZM2.42854 7.89311C2.42854 7.26309 2.94081 6.75026 3.57139 6.75026H5.41179V37.1275C5.41179 38.3881 6.43746 39.4132 7.69751 39.4132H47.4341C48.6942 39.4132 49.7198 38.3881 49.7198 37.1275V6.75026H51.5714C52.202 6.75026 52.7143 7.26309 52.7143 7.89311V40.7503C52.7143 41.3803 52.202 41.8931 51.5714 41.8931H32.4397C31.9375 41.8931 31.4944 42.2207 31.3471 42.7006C30.9129 44.1158 29.6261 45.0667 28.1451 45.0667H26.9866C25.5111 45.0667 24.2254 44.1197 23.7801 42.6872C23.6283 42.214 23.1886 41.8931 22.6919 41.8931H3.57139C2.94081 41.8931 2.42854 41.3803 2.42854 40.7503V7.89311Z" fill="#FF6B09"></path>
  </symbol>
</svg>