<svg width="0" height="0" class="hidden">
  <symbol fill="none" xmlns="http://www.w3.org/2000/svg" viewBox="0 0 48 47" id="2">
    <path d="M44.3198 -0.187988H21.1928C19.6873 -0.187988 18.4626 1.0367 18.4626 2.54224V12.1155L1.28127 19.3269C1.08675 19.4085 0.954522 19.5921 0.939586 19.8026C0.924651 20.0132 1.02883 20.2142 1.20988 20.3228L3.40098 21.6342V35.6091C2.28052 35.8646 1.43973 36.8674 1.43973 38.0673V39.4143C1.43973 39.7233 1.69035 39.9739 1.99926 39.9739H5.92285C6.23175 39.9739 6.48237 39.7233 6.48237 39.4143V38.0673C6.48237 36.869 5.64144 35.8675 4.52003 35.6104V22.304L6.25251 23.3409C6.19925 23.7404 6.24577 22.6446 6.22774 29.8471C6.22774 32.2147 12.2922 33.483 18.4626 33.5557V44.4617C18.4626 45.0251 18.6351 45.549 18.93 45.9838C19.4207 46.7097 20.2512 47.1879 21.1914 47.1879H44.3183C45.8224 47.1879 47.046 45.964 47.046 44.4603C47.046 44.535 47.043 42.1501 47.046 2.5426C47.046 1.0575 45.818 -0.187988 44.3198 -0.187988ZM5.36332 38.0673V38.8548H2.55878V38.0673C2.55878 37.2921 3.18642 36.6612 3.95759 36.6612C4.73276 36.6612 5.36332 37.2921 5.36332 38.0673ZM44.3198 46.066H21.1928C20.6379 46.066 20.1477 45.7851 19.8578 45.3587C19.6842 45.102 19.5827 44.7927 19.5827 44.4603V40.6798H45.9241V44.4617C45.9241 45.3381 45.1938 46.066 44.3198 46.066ZM45.9241 39.5608H19.5816V33.559C22.5943 33.5245 31.8238 32.861 31.8238 29.8471C31.8204 25.3225 31.8318 23.4877 31.8096 23.3324L36.834 20.3228C37.015 20.2142 37.1192 20.0132 37.1043 19.8026C37.0893 19.5921 36.9571 19.4085 36.7626 19.3269L19.5816 12.1153V7.44208H45.9241V39.5608ZM19.0221 26.1322C15.9185 26.1322 9.94282 26.533 7.34679 28.2282C7.36326 23.0432 7.16689 23.3809 7.80541 22.9412C9.41805 21.7537 14.0305 20.9246 19.0221 20.9246C21.1993 20.9246 30.7047 21.5231 30.7047 23.5357V28.229C28.0844 26.518 22.139 26.1322 19.0221 26.1322ZM19.5827 2.5426C19.5827 1.6556 20.3044 0.933974 21.1914 0.933974H44.3183C45.2061 0.933974 45.9241 1.66572 45.9241 2.54224V6.32303H19.5827V2.5426ZM19.0221 13.0941L35.3106 19.9308L31.2746 22.3461C29.1289 20.2182 22.0309 19.8055 19.0221 19.8055C16.0094 19.8055 8.91093 20.2194 6.76978 22.3467L2.73254 19.9308L19.0221 13.0941ZM7.34679 29.8471C7.34679 28.9415 11.3567 27.2513 19.0221 27.2513C26.6923 27.2513 30.7047 28.9415 30.7047 29.8471C30.7047 30.7534 26.6923 32.4436 19.0221 32.4436C11.3567 32.4436 7.34679 30.7534 7.34679 29.8471Z" fill="#FF6B09"></path>
  </symbol>
  <symbol fill="none" xmlns="http://www.w3.org/2000/svg" viewBox="0 0 41 48" id="1">
    <path d="M40.2259 7.44103C40.2259 7.43999 40.2249 7.43895 40.2249 7.43739C40.215 7.41391 40.203 7.39095 40.1889 7.36956C40.1873 7.36799 40.1863 7.36643 40.1852 7.36486C40.1706 7.34295 40.1539 7.32103 40.1346 7.30173L32.9258 0.0933838C32.907 0.0746012 32.8866 0.0589521 32.8647 0.0443434C32.8605 0.0412129 32.8553 0.0385972 32.8511 0.0354667C32.8334 0.0245102 32.8157 0.0145973 32.7969 0.00624947C32.7911 0.00364077 32.7859 0.00103182 32.7807 -0.000533395C32.7337 -0.019316 32.6831 -0.0292283 32.6325 -0.0307936C32.6294 -0.0307936 32.6268 -0.031311 32.6247 -0.031311H0.867486C0.632182 -0.031311 0.441742 0.159646 0.441742 0.394951V44.3609C0.441742 44.389 0.444354 44.4162 0.450093 44.4443C0.452702 44.4563 0.456878 44.4673 0.46053 44.4788C0.465226 44.4939 0.468874 44.509 0.474613 44.5236C0.480352 44.5367 0.487658 44.5492 0.494962 44.5623C0.501223 44.5732 0.506438 44.5857 0.513742 44.5967C0.528351 44.6181 0.545051 44.6384 0.562791 44.6567C0.564356 44.6583 0.564875 44.6603 0.566962 44.6614L3.81375 47.9076C3.98018 48.0741 4.2494 48.0741 4.41636 47.9076L7.36314 44.9624L10.3089 47.9076C10.3918 47.9911 10.5014 48.0323 10.6104 48.0323C10.719 48.0323 10.828 47.9911 10.9115 47.9076L13.8567 44.9629L16.8035 47.9076C16.9699 48.0741 17.2397 48.0741 17.4061 47.9076L20.3513 44.9629L23.2965 47.9076C23.463 48.0741 23.7327 48.0741 23.8986 47.9076L26.8464 44.9624L29.7917 47.9076C29.8746 47.9911 29.9842 48.0323 30.0927 48.0323C30.2017 48.0323 30.3108 47.9911 30.3943 47.9076L33.3395 44.9629L36.2868 47.9076C36.4527 48.0741 36.723 48.0741 36.8889 47.9076L40.1357 44.6614C40.1419 44.6551 40.1466 44.6478 40.1524 44.641C40.1643 44.627 40.1774 44.6129 40.1878 44.5972C40.1977 44.5831 40.2045 44.5669 40.2124 44.5518C40.2176 44.5419 40.2233 44.5336 40.2264 44.5236C40.2353 44.5043 40.2395 44.4845 40.2447 44.4647C40.2468 44.4579 40.2499 44.4516 40.2515 44.4449C40.2572 44.4156 40.2603 44.3875 40.2603 44.3577V7.60382C40.2588 7.54799 40.2478 7.49268 40.2259 7.44103ZM33.0499 1.42382L38.8037 7.17703H33.0499V1.42382ZM39.4063 44.1835L36.5863 47.0035L33.639 44.0583C33.4731 43.8923 33.2033 43.8923 33.0369 44.0583L30.0917 47.0035L27.1464 44.0583C26.98 43.8923 26.7103 43.8923 26.5438 44.0583L23.5965 47.0035L20.6518 44.0598C20.6518 44.0593 20.6513 44.0588 20.6513 44.0583C20.5684 43.9753 20.4593 43.9336 20.3497 43.9336C20.2407 43.9336 20.1317 43.9753 20.0487 44.0583C20.0482 44.0588 20.0482 44.0588 20.0482 44.0588L17.1035 47.0035L14.1567 44.0583C13.9903 43.8923 13.721 43.8923 13.5541 44.0583L10.6089 47.0035L7.66314 44.0583C7.4967 43.8923 7.22748 43.8923 7.06053 44.0583L4.11375 47.0035L1.29322 44.1835V0.820169H32.1979V7.60278C32.1979 7.83808 32.3889 8.02904 32.6242 8.02904H39.4057L39.4063 44.1835Z" fill="#FF6B09"></path>
  </symbol>
  <symbol fill="none" xmlns="http://www.w3.org/2000/svg" viewBox="0 0 66 48" id="3">
    <path d="M64.8724 5.16797H62.0638V0.949719C62.0638 0.526847 61.7207 0.183762 61.2979 0.183762H38.4009C36.1665 0.183762 34.2298 1.39173 33.2135 3.19997C32.197 1.39154 30.2591 0.183762 28.0246 0.183762H5.12766C4.70479 0.183762 4.3617 0.526847 4.3617 0.949719V5.16797H1.55319C1.13032 5.16797 0.787231 5.51105 0.787231 5.93393V47.0503C0.787231 47.4732 1.13032 47.8162 1.55319 47.8162C9.24343 47.8162 57.1546 47.8162 64.8724 47.8162C65.2952 47.8162 65.6383 47.4732 65.6383 47.0503V5.93393C65.6383 5.51105 65.2952 5.16797 64.8724 5.16797ZM38.4009 1.71568H60.5319C60.5319 8.57486 60.5319 26.6435 60.5319 42.7408H36.7668C35.7133 42.7408 34.66 43.185 33.9787 43.7611V6.12791C33.9787 3.68264 35.9364 1.71568 38.4009 1.71568ZM5.89361 1.71568H28.0246C30.4197 1.71568 32.358 3.57971 32.4373 5.95936C32.4383 5.99227 32.4413 6.0955 32.4468 6.12791V6.13389V6.13539V43.7581C31.7673 43.1843 30.7254 42.7408 29.6687 42.7408H5.89361C5.89361 26.6489 5.89361 8.57266 5.89361 1.71568ZM2.31915 6.69988H4.3617V43.5067C4.3617 43.9296 4.70479 44.2727 5.12766 44.2727H29.6687C30.8363 44.2727 31.9647 45.0387 32.3259 46.2843H2.31915V6.69988ZM64.1064 46.2843H34.1001C34.4637 45.0326 35.5808 44.2727 36.7668 44.2727H61.2979C61.7207 44.2727 62.0638 43.9296 62.0638 43.5067V6.69988H64.1064V46.2843Z" fill="white"></path>
  </symbol>
  <symbol fill="none" xmlns="http://www.w3.org/2000/svg" viewBox="0 0 49 48" id="4">
    <path d="M2.98972 18.837V23.084C2.98972 23.3121 3.09437 23.5271 3.27377 23.6688C6.17633 25.9532 9.81835 27.212 13.5294 27.212C14.6401 27.212 15.7517 27.0959 16.8386 26.8764C19.1553 27.9004 21.6212 28.4243 24.1736 28.4243C26.7342 28.4243 29.2007 27.9001 31.5092 26.8764C36.1455 27.8127 41.0857 26.8071 45.0728 23.6688C45.2522 23.5271 45.3567 23.3121 45.3567 23.084V18.837C45.3567 18.2137 45.0473 17.6457 44.4945 17.2963L38.6938 14.0329C39.9627 12.4227 40.9081 10.1302 41.0726 8.16368C41.554 4.77893 38.7954 1.19418 34.8243 1.19418C33.1546 1.19418 31.5673 1.88152 30.4026 3.03435C30.3623 3.07429 30.3163 3.10798 30.2771 3.14904C30.2412 3.18653 30.2122 3.23026 30.1773 3.26872C30.154 3.29423 30.1338 3.32242 30.1109 3.3483C28.976 1.27875 26.7946 0 24.2245 0C23.9748 0 23.7296 0.0171075 23.4866 0.0418018C23.4719 0.0409092 23.4593 0.0333968 23.4443 0.0333968C23.3063 0.0333968 23.0143 0.0696943 22.8582 0.114769C22.8351 0.121463 22.8185 0.137752 22.7966 0.14638C20.8774 0.534497 19.2516 1.69751 18.2772 3.38029C17.1053 2.01377 15.3826 1.19485 13.509 1.19485C7.64689 1.19485 5.04611 8.11266 9.67346 14.066L3.81928 17.316C3.29988 17.6449 2.98972 18.2137 2.98972 18.837ZM31.4946 25.2419C31.3689 25.3033 31.2444 25.3689 31.1177 25.4266L31.1175 25.4267C31.1166 25.4271 31.1157 25.4277 31.1148 25.428C28.9364 26.429 26.6012 26.9367 24.1736 26.9367C21.7533 26.9367 19.4181 26.429 17.2295 25.4266C16.1646 24.9421 15.1347 24.3262 14.162 23.5954V19.2902C14.162 19.1435 14.2332 19.0135 14.3153 18.9589L21.1283 15.1723C21.976 15.8919 23.0589 16.4196 24.1809 16.4196C25.2617 16.4196 26.429 15.8842 27.2595 15.1547L33.9898 18.9343C34.114 19.0142 34.1852 19.1435 34.1852 19.2902V23.5947C33.3283 24.2385 32.4259 24.7869 31.4946 25.2419ZM43.7312 18.5725C43.819 18.6277 43.8691 18.7243 43.8691 18.837V22.718C40.9164 24.9339 37.3635 25.9397 33.7639 25.6873C34.3177 25.3417 34.9207 24.9129 35.3881 24.5469C35.5675 24.406 35.6728 24.1903 35.6728 23.9615V19.2902C35.6728 18.6379 35.3451 18.0372 34.7575 17.6603L31.1824 15.6511L32.0518 15.1695C33.1063 16.0294 34.0118 16.2852 34.8243 16.2852C35.8181 16.2852 36.8644 15.7977 37.6413 15.147L43.7312 18.5725ZM34.8243 2.68178C36.895 2.68178 38.7138 4.03491 39.3562 5.89524C38.1068 5.74699 36.885 5.13031 36.0011 4.1824C35.8413 4.01103 35.614 3.92237 35.3779 3.94997C35.1454 3.97466 34.9385 4.10758 34.8185 4.30811C33.9702 5.72959 32.5792 6.67824 30.9971 6.94772C30.9972 6.94623 30.9969 6.94489 30.9969 6.9434C31.0039 6.61977 30.9851 6.29183 30.9481 5.96389C30.9443 5.93027 30.9412 5.89724 30.9369 5.864C30.889 5.49142 30.7768 5.02588 30.7546 4.9509C31.5992 3.5977 33.1682 2.68178 34.8243 2.68178ZM30.8341 8.46537C32.7134 8.25949 34.4131 7.31516 35.5805 5.82257C36.7312 6.76623 38.1909 7.33806 39.6333 7.40716C39.6222 10.095 37.4267 14.7976 34.8243 14.7976C32.8185 14.7976 31.1061 11.9291 30.4662 9.94033C30.6288 9.42882 30.7472 8.93679 30.8341 8.46537ZM30.9852 14.0593L29.6564 14.7951L28.3144 14.0414C28.812 13.4216 29.2681 12.702 29.6589 11.9213C30.0344 12.7109 30.4845 13.4364 30.9852 14.0593ZM28.98 9.69704C28.2627 11.8369 26.4227 14.932 24.1809 14.932C21.5675 14.932 19.342 10.6358 18.918 7.88833C19.0311 7.86029 22.5623 8.07785 24.9922 4.88701C26.2258 5.91881 27.8898 6.6017 29.5083 6.66946C29.5274 7.6393 29.2922 8.77881 28.98 9.69704ZM24.2245 1.48761C28.3939 1.48761 29.1877 5.07631 29.253 5.15076C27.7411 4.99724 26.3616 4.25656 25.4085 3.2374C25.2486 3.06603 25.0162 2.98027 24.7845 3.00571C24.5513 3.03115 24.3443 3.16481 24.2245 3.36675C23.3986 4.76406 22.1032 5.7496 20.6035 6.16843C20.0245 6.33021 19.3991 6.404 18.8539 6.39871C19.058 3.66598 21.2482 1.48761 24.2245 1.48761ZM18.6917 11.907C19.0775 12.6791 19.536 13.4166 20.0607 14.0645L18.7476 14.7944L17.3874 14.0298C17.9033 13.3723 18.3411 12.6366 18.6917 11.907ZM13.509 2.68245C15.1959 2.68245 16.7415 3.53849 17.6028 4.95313C17.5596 5.10308 17.4432 5.69999 17.4278 5.77466C16.3928 5.52698 15.4419 4.9756 14.6967 4.18099C14.5361 4.01029 14.3095 3.92527 14.0727 3.94997C13.8402 3.9754 13.6332 4.10907 13.5142 4.31026C12.5192 5.98925 10.6931 7.03206 8.7484 7.03258C8.98522 4.59231 11.0254 2.68245 13.509 2.68245ZM8.81377 8.5164C10.9512 8.49557 12.9692 7.48809 14.2775 5.82257C15.1713 6.55834 16.2328 7.04277 17.3607 7.26406C17.4045 8.12635 17.6292 9.17414 17.8862 9.94688C17.4755 11.2064 16.6874 12.7079 15.7101 13.705C15.7038 13.7112 15.6957 13.714 15.6896 13.7204C15.078 14.3647 14.2078 14.7983 13.5235 14.7983C11.1326 14.7983 9.26237 11.0362 8.81377 8.5164ZM4.47732 18.837C4.47732 18.7243 4.52745 18.6285 4.57833 18.5943L10.7521 15.1682C11.1225 15.4766 11.2077 15.5118 11.2822 15.5663L11.282 15.5668C12.0086 16.0497 12.6745 16.2903 13.5831 16.2903C14.5507 16.2903 15.4316 15.8803 16.2068 15.249C16.2505 15.2148 16.2975 15.1818 16.339 15.147L17.2201 15.6424L13.5505 17.6835C13.0021 18.0372 12.6744 18.6379 12.6744 19.2902V23.9615C12.6744 24.1896 12.7791 24.4053 12.9592 24.5462C13.4343 24.9194 14.0502 25.3547 14.5834 25.6881C10.9319 25.9372 7.3792 24.8956 4.47732 22.718V18.837Z" fill="#FF6B09"></path>
    <path d="M46.8879 31.1716C45.9727 30.5963 44.8461 30.5367 43.8771 31.0067L34.6979 35.441C34.6659 33.723 33.2638 32.3338 31.5375 32.3338L26.2743 32.3352C23.679 30.0791 20.3624 28.6975 17.3465 28.6249C14.3724 28.5544 11.7027 28.5346 10.4576 28.5291V27.0261H0V44.3014H10.4576V42.2327C13.3254 43.878 20.8661 48.0001 24.4446 48.0001C24.5259 48.0001 24.6051 47.998 24.6813 47.9936C30.9746 47.6406 45.8172 37.1961 46.7964 36.5024C47.7538 35.9467 48.3472 34.9182 48.3472 33.809C48.3472 32.7304 47.8017 31.7447 46.8879 31.1716ZM8.96997 42.8138H1.48761V28.5137H8.96997V42.8138ZM46.0308 35.2269C46.0083 35.2392 45.9858 35.253 45.9647 35.2683C45.8114 35.3772 30.5439 46.1747 24.5985 46.5089C24.5397 46.5118 24.4801 46.5132 24.4176 46.5132C21.2789 46.5132 13.6263 42.3844 10.4576 40.5118V30.0167C11.698 30.0223 14.3524 30.0422 17.3108 30.1125C20.0659 30.1786 23.1247 31.4941 25.4941 33.631L25.7063 33.8228L31.5375 33.8214C32.4629 33.8214 33.2162 34.5739 33.2162 35.4992C33.2162 36.4247 32.4637 37.1779 31.5383 37.1779H20.8251V38.6655H31.5383C32.565 38.6655 33.4699 38.1664 34.0486 37.4063L44.5244 32.3461C45.0386 32.0955 45.6124 32.1274 46.0976 32.4318C46.5822 32.7354 46.8596 33.2373 46.8596 33.809C46.8596 34.3959 46.5421 34.9385 46.0308 35.2269Z" fill="#FF6B09"></path>
    <path d="M24.9174 18.2375H23.4298V19.6169H24.9174V18.2375Z" fill="#FF6B09"></path>
    <path d="M24.9174 20.9885H23.4298V22.3679H24.9174V20.9885Z" fill="#FF6B09"></path>
    <path d="M24.9174 23.7393H23.4298V25.1186H24.9174V23.7393Z" fill="#FF6B09"></path>
  </symbol>
  <symbol fill="none" xmlns="http://www.w3.org/2000/svg" viewBox="0 0 55 48" id="6">
    <path d="M3.57139 44.1788H21.9163C22.846 46.1068 24.7913 47.3524 26.9866 47.3524H28.1451C30.3426 47.3524 32.2868 46.1074 33.2165 44.1788H51.5714C53.462 44.1788 55 42.6409 55 40.7503V7.89311C55 6.00249 53.462 4.46454 51.5714 4.46454H49.7198V2.9333C49.7198 1.67269 48.6942 0.647583 47.4341 0.647583H7.69751C6.43746 0.647583 5.41179 1.67269 5.41179 2.9333V4.46454H3.57139C1.68077 4.46454 0.142822 6.00249 0.142822 7.89311V40.7503C0.142822 42.6409 1.68077 44.1788 3.57139 44.1788ZM47.4319 37.1275H28.7143V10.5698C33.0406 11.1357 36.3951 14.8373 36.3951 19.3156V20.3463L36.1239 20.2865C35.8292 20.2235 35.5201 20.2765 35.2634 20.4394C35.0078 20.603 34.827 20.8608 34.7622 21.1571L32.943 29.4361C32.808 30.0516 33.1975 30.6604 33.8136 30.796L37.7455 31.6627C37.9486 31.7056 38.1551 31.7279 38.3616 31.7279C39.7444 31.7279 40.9218 30.7821 41.2232 29.4255L42.2756 24.6375C42.6227 23.0656 41.6261 21.5019 40.0491 21.1515L38.6808 20.85V19.3156C38.6808 13.5745 34.305 8.83692 28.7143 8.26019V2.9333H47.4341L47.4319 37.1275ZM36.7488 22.7648L39.5558 23.3831C39.9062 23.4612 40.1205 23.7949 40.0435 24.1454L38.991 28.9322C38.9151 29.2782 38.5323 29.493 38.2299 29.4288L35.4196 28.8094L36.7488 22.7648ZM7.69751 2.9333H26.4285V8.2585C20.8323 8.82993 16.4509 13.5706 16.4509 19.3156V20.8493L15.0803 21.1521C14.3169 21.3217 13.6651 21.7765 13.2466 22.4327C12.8259 23.0907 12.6875 23.8742 12.8571 24.6353L13.9073 29.4177C14.1919 30.7564 15.3962 31.7279 16.7712 31.7279C16.9777 31.7279 17.1841 31.7056 17.3951 31.661L21.3102 30.796C21.9252 30.6599 22.3147 30.0516 22.1797 29.4361L20.3605 21.1571C20.2957 20.8608 20.1149 20.6024 19.8593 20.4394C19.6026 20.2765 19.2924 20.2229 18.9977 20.2865L18.7366 20.3442V19.3156C18.7366 14.8335 22.0967 11.129 26.4285 10.5681V37.1275H7.69751V5.6074V2.9333ZM18.3739 22.7659L19.7042 28.81L16.9096 29.4272C16.5658 29.5047 16.2154 29.2776 16.1417 28.9355L15.0892 24.142C15.0513 23.9757 15.0814 23.8055 15.1718 23.6638C15.2634 23.5203 15.4073 23.421 15.5736 23.3836L18.3739 22.7659ZM2.42854 7.89311C2.42854 7.26309 2.94081 6.75026 3.57139 6.75026H5.41179V37.1275C5.41179 38.3881 6.43746 39.4132 7.69751 39.4132H47.4341C48.6942 39.4132 49.7198 38.3881 49.7198 37.1275V6.75026H51.5714C52.202 6.75026 52.7143 7.26309 52.7143 7.89311V40.7503C52.7143 41.3803 52.202 41.8931 51.5714 41.8931H32.4397C31.9375 41.8931 31.4944 42.2207 31.3471 42.7006C30.9129 44.1158 29.6261 45.0667 28.1451 45.0667H26.9866C25.5111 45.0667 24.2254 44.1197 23.7801 42.6872C23.6283 42.214 23.1886 41.8931 22.6919 41.8931H3.57139C2.94081 41.8931 2.42854 41.3803 2.42854 40.7503V7.89311Z" fill="#FF6B09"></path>
  </symbol>
</svg>